<?xml version="1.0" encoding="utf-8"?>
<!-- Generator: Adobe Illustrator 19.2.0, SVG Export Plug-In . SVG Version: 6.00 Build 0)  -->
<svg version="1.1" id="Layer_1" xmlns="http://www.w3.org/2000/svg" xmlns:xlink="http://www.w3.org/1999/xlink" x="0px" y="0px"
	 width="800px" height="500px" viewBox="0 0 800 500" enable-background="new 0 0 800 500" xml:space="preserve">
<path id='pose1' fill="#ED3530" stroke="black" fill-opacity="0.1" d="M565.7,395.5c0-3.5-5.2-6.9-7.5-9.1c-3.1-3.1-5.6-6.5-8.6-9.5c0,0,0,0-0.1-0.1c-0.2-0.9,0.1-9.6,0.8-12.1
	c2.6-8.4,6.5-15,8.2-23.7c3.1-15.4,0.8-29-5.3-43.2c-0.5-1.2-1-2.3-1.6-3.3c0.8-2,0.9-4-0.4-6c-6.7-10-20.1-20.5-27.6-29.8l0,0
	c0.3-7.3,0.3-14.7-2.6-21.4c-4.7-10.7-11.4-19.9-19.7-28.1c-2.4-2.3-4.8-4.6-7.2-6.9c-7.6-7.8-15.8-15-24.5-21.5
	c-7.5-6.5-15-13-22.1-20c-2.3-2.8-4.6-5.7-6.7-8.7c-1.7-2.4-5.5-4.3-8.3-2.2c-3.6,2.7-7.2,5.4-10.7,8.1c-0.3,0.2-0.7,0.5-1,0.7
	c-2-1.6-4.1-3.2-6-4.8c-1.6-1.4-3-2.8-4.4-4.3c-1.4-1.6-2.6-3.4-4-5c-0.2-0.3-0.5-0.5-0.7-0.8c-0.2-0.4-0.5-0.7-0.8-1.1
	c-1.3-1.8-2.4-3.4-5.2-2.8c-0.1,0-0.3,0.1-0.5,0.2c-0.5,0-1.1,0-1.6,0.1c-0.5-0.3-1.1-0.6-1.5-1c-1.3-1-2.5-2.3-3.6-3.5
	c-2.4-2.8-4.5-5.8-6.7-8.7c-5-6.5-12-11.1-16.2-18.4c-0.1-0.3-0.3-0.4-0.6-0.5c-3.7-6.1-8.8-11.9-16.3-13c-7.7-1.1-13.7,3.4-18,9.2
	c-2.2,2.9-4,6.2-6,9.2c-2.5,3.9-4.9,7.9-7.3,11.8c-4.9,8.1-9.9,16.2-15.9,23.6c-2.8,3.4-6.1,6.3-8.9,9.7c-1.2,1.4-2.4,2.9-3.7,4.3
	c-0.6,0.7-1.3,1.3-2,1.9c-0.4,0.3-0.8,0.6-1.2,0.9c-0.2,0.1-1.6,0.7-1,0.8c-0.8-0.1-1.7-0.3-2.5-0.4c-0.5-0.3-1.1-0.4-1.8-0.3
	c-0.2,0-0.3,0.1-0.5,0.1c-0.8,0-1.6,0.2-2.4,0.4c-0.9,0.2-1.9,0.5-2.8,0.8c-3.1-0.9-6-2.1-8.9-3.4c-3.4-1.8-6.9-3.5-10.4-5.2
	c-5.5-4.5-11-9.1-18-10.9c-0.9-0.2-1.7-0.1-2.4,0.2c-0.8,0-1.6,0.3-2.2,1.1c-0.2,0.2-0.3,0.4-0.5,0.6c-1.1,0.9-1.7,2-2,3.3
	c0.1,0,0.1,0.1,0.2,0.1c-3,10,10.2,23,15.9,29.2c7.1,7.7,13.9,16.1,22.2,21.9c3.8,3.6,8,6.4,12.6,7.7c0.4,0.1,0.8,0.1,1.2,0.1
	c0.4,5.3,2,10.4,3.9,15.4c1.3,4.2,2.4,8.5,3.9,12.6c0.3,1.6,0.5,3.3,0.7,4.9c0.6,4.3,1.5,8.5,3,12.6c5.1,14.7,13.2,28.9,13.5,44.8
	c-2.7-0.8-5.3-1.9-8.2-1.7c-0.6,0-1.2,0.5-1.2,1.2c0,3.8-0.3,7.6,0.3,11.3c0.5,3.2,2.8,4.9,5,6.9c-2.7,3.8-5.4,7.7-8.5,11.2
	c-2.7,3-5.9,5.4-8.6,8.4c-1.4,1.6-3.3,3.9-2.9,6.2c0.5,2.7,3.9,3.1,6.1,3.1c7.3,0.2,15.7-0.8,21.9-4.8c3.5-2.2,5.7-5.9,7.7-9.4
	c1.5-2.5,3.1-4.8,4.9-6.9c4-3.2,8.4-6,11.9-9.6c0.5-0.3,0.9-0.7,1.4-1c0.4-0.3,0.9-0.7,1.3-1c0.3-0.2,0.5-0.4,0.8-0.6
	c1.9-1.5,3.6-3.4,4.3-5.7c0.5-2.1-0.5-3.5-1.9-4.5c0,0,0,0,0,0c-0.4-0.4-0.9-0.8-1.3-1.2c0,0,0,0,0,0c-0.1-0.2-0.2-0.3-0.4-0.4
	c-1.2-1.3-2.8-2.5-4.1-3.6c-0.5-0.5-1.1-1.1-1.6-1.7c-0.2-0.3-0.5-0.4-0.8-0.4c-3.7-3.5-7.8-6.6-9.5-11.7c-1.2-3.8-1.7-8-2.3-11.9
	c-0.7-4.3-1.2-8.6-1.7-12.8c-0.5-3.9-0.4-7.5,0.2-11.4c0.5-3.6,0.8-7.1,0.2-10.7c-1.2-6.7-6.3-12.1-6.4-19c0.2-0.1,0.3-0.3,0.4-0.5
	c0.2-0.6,0.5-1.1,0.9-1.4c1.6-0.4,3.3-0.7,5-0.9c0.3,0.1,0.6,0.2,1,0.2c1.3,0.4,2.5,0.9,3.7,1.4c1.8,0.8,3.6,1.3,5.5,1.9
	c3.8,1.1,8,1.6,11.9,0.9c3.9-0.7,7.1-3.3,10.9-4.3c0.3-0.1,0.5-0.3,0.7-0.5c0.8,0.1,1.7,0.2,2.6,0.2c4.8,0,9.5-0.9,14.3-1.2
	c2.4-0.1,4.6,0.2,6.8,1.1c2.1,0.9,4,2,6.1,2.9c2,0.8,4.3,1.2,6.4,1.7c1.9,0.4,3.8,0.4,5.7,0.1c1.3-0.2,2.5-0.6,3.7-1.1
	c0.5-0.1,0.9-0.1,1.4-0.2c6.2-1,11.7-1.3,17.7-0.5c5,3.4,9.6,8.5,13.4,12.2c4.3,4.2,8,8.8,10.8,14c1.2,2.6,2.4,5.2,3.5,7.8
	c0.3,0.7,0.5,1.4,0.8,2.2c2.8,8.9,4.6,17.6,9.4,25.8c0.9,1.5,1.8,2.9,2.7,4.4c2.4,4.4,5.3,8.6,8.7,12.4c1.9,2.5,4,4.8,6.2,7.1
	c0.2,0.2,0.4,0.3,0.7,0.4c0,0.8,2,10.1,2.5,13.7c1.9,16.3,1,23.2,3.3,34.7c0.3,3.7,2.3,9.4,1.6,12.1c0,0,0,0-0.1,0.1
	c-3.1,3-5.5,6.5-8.6,9.5c-2.3,2.2-7.4,5.7-7.5,9.1c0,1,0.4,2.3,0.4,3.3c0.1,1.3-1.6,3.8,0.3,4.1c-0.4,3.3,2.3,1.9,4.2,1.3
	c1.9,2.7,3-1.2,3.9-2.4c1.6-2.2,4.5-3.7,6.5-5.9c5.8-6.2,1.8-3.2,7.5-8.1c2.5,4.6,0.1,8.7-0.7,13.7c-0.5,3.1,2.3,2.5,3.9,0.4
	c1.8-2.5,1.8-5.7,3.1-8.5c1.1-2.4,2.2-4.9,1.5-7.4c-0.8-2.5-1.2-3.5-1.2-6.2c-0.1-4.2-0.1-7.9,0.4-12c0.2-1.5,0.4-4.1,0.3-6
	c0.3-9.5-0.2-18.6-0.3-23.4c5.4,4.9,14.5,12.5,22.1,11.9c4.5,0.5,9.2-0.2,13.8-1c0.3,1.7,0.4,3.3,0.5,3.7c0.8,5,0.2,32.6,0.1,36.8
	c-0.1,2.7-0.5,3.7-1.2,6.2c-0.7,2.4,0.4,5,1.5,7.4c1.3,2.8,1.3,6,3.1,8.5c1.5,2.1,4.4,2.8,3.9-0.4c-0.8-5-3.3-9.1-0.7-13.7
	c5.6,4.8,1.7,1.8,7.5,8.1c2,2.1,4.9,3.6,6.5,5.9c0.9,1.3,2,5.1,3.9,2.5c1.9,0.6,4.6,2,4.2-1.3c1.9-0.3,0.2-2.9,0.3-4.1
	C565.3,397.8,565.7,396.5,565.7,395.5z M349,174c-0.6,0.2-1.3,0.3-1.8,0.5c-6.3,1.8-12.1,4.6-18,7.4c-11.1,5.3-23,8.6-33.8,14.3
	c0.4-0.6,0.9-1.3,1.5-1.8c2.2-2.1,6.1-2.6,7.8-5.2c1-1.5,0.8-3.4,0.6-5.1c-0.3-2.8,1.2-4.6,3.1-6.5c1.6-1.6,3.3-3,5-4.4
	c1.9-1.6,3.5-3.5,5.2-5.3c3.1-3.5,6.1-7.1,9.3-10.5c3.1-2.1,6.3-4,9.5-6c5.4-3.3,10.8-7.2,14.9-12.1c3.1,7.1,4.2,14.9,6.4,22.3
	C353.5,163.5,349.7,167.1,349,174z"/>
<g>
  <path id='pose2' fill="#ED3530" d="M344.7,347.1c3.4,0.8,6.3,1.5,9.9,0.8c3.4-0.7,6.5-2.6,10.3-1.8c3.2,0.7,3.1,2.4,3.3,6.2
	c0.2,3-0.2,5.7-1.1,8.4c-3,9-9.1,17.2-13.9,25.5c-2.5,4.3-9.1,18.4-4.1,22.8c0.1-5.3,2-11.9,3.5-16.1c1.7-4.6,3.8-6.9,6.8-10.7
	c2.6,2.8-1.5,11.2-2.6,14.3c-1.8,5.1-5.3,10.3-6.6,15.3c4.9-0.6,7.4-11.6,9.1-15.5c-0.1,10-3.4,19-10.3,26.1c-2.2,2.3-4,4.3-6,6.7
	c-2.9,3.3-4,4.5-2,5.9c-3.5,1.3-8.9,2.6-9.7,4.6c-0.9,2.2,3.1,2,3.1,2s-1.9,3-1.1,4.7c0.8,1.4,4.5-0.8,7-0.4c-1.3,3.1-2,5.7,2.6,3.9
	c3.1-1.2,8.3-3.5,10.6-5.8c3.1-3.1,9-8.5,13.9-4.6c-1.5,4.6-7.1,6-6,11.3c2.6,0.7,6.6-3,8.9-4.7c3.2-2.3,9.6-4.1,11.1-7.8
	c0.4-1,13.5-4.2,16.1-5.7c10.9-6.6,25.1-7.2,37.7-9.1c6.8-1,12.5-2.4,12.8-10.4c0.3-7.9-0.4-16.2,0.3-24.1
	c0.6-6.2,1.1-12.7,0.8-19.1c-0.1-2.9-0.6-6.2-0.7-9.1c-0.2-4.9,1.3-2.2,3.4-5c1.6-2.2-1.4-4.4-1.6-7.4c-0.2-3.6,2.4-6.3,5-8.5
	c6.1-5,12.9-9.5,19.1-14.5c2.6-2,5.9-4.2,8.6-6.9c9.7-7.4,19.4-14.1,27.6-22.2c4.2-4.2,8.5-7.3,12.3-11.7c2.9-3.3,6.5-5.2,8.7-8.3
	c4.9-4.2,9.7-8.2,13.7-11.5c4.2-3.5,8.6-8.2,12.5-12c4.2-4,3.4-6.1,2.3-11.6c-1.9-9.4,2.1-17.3,1.6-26.9c-0.5-8.9-1.8-18.2-6.2-25.8
	c-4-7-10.8-11.2-17.4-15.5c-9.8-6.4-17.8-7.3-29.1-4.4c-10.4,2.6-18.3,1.7-28.5-1.9c-4.2-1.5-8.9-1.6-13.1-3
	c-3.5-1.2-7.8-4.3-11.1-5.9c-4.7-2.4-8.3-3.4-14.3-2.8c-6.7,0.7-6.2,0.6-11.1-4.3c-5-5-15-13.2-22.4-12.1c-2.1,0.3-4.3,1.1-6.6,2.1
	c-7.7-11.1-26.6-25.4-31.4-30.1c-6.9-6.7-15.9-11.1-22.3-18.7c-3.3-3.9-6.8-7.3-10.5-11.6c-4.9-4.7-8.3-19.3-14.9-23.6
	c-3.3-2.1-7.8-3.1-12.2-3c-2.6-3.5-6.9-5.6-10.3-3.6c-3.4,2-8.7,9.8-11.6,12.8c-3.3,3.5-6.1,7.4-8.9,11.3c-1.9,2.6-4,8.2-6.5,9.9
	c-7.9,5.1-22.1-6-26.2,4.4c-3.8,9.4-0.2,21.6-2.9,31.4c-2.6,9.4-7.1,15-5.9,25.3c1,8.4,4.9,27.3,14.1,22.4
	c5.1-2.6,2.9-10.7,5.7-15.7c2.7-4.8,6.4-8.9,10.4-11.6c2.4-1.6,4.8-2.2,7-4c2.4,2.1-3.2,12.1-3.2,15.9c2.5-1,1-3.5,2.5-5.4
	c1.5-1.8,3.4-1.1,5.1-2.7c2.6-2.7,0.8-7.8,3.2-10.9c3,4.3,0.8,11.5,2.9,15.9c3.9-6.5-4-19.5,7.7-15.9c7.5,2.3,13.2,6.7,19.9,10.2
	c6.4,3.4,12,6.8,17,12.8c2.9,3.4,10.5,12.7,14.6,18.8c2.1,3.8,2.9,5.7,4.4,7.7c-0.2,7.5,2.1,2.8,6.5,7.1c2.8,2.7,3.5,9.9,4.9,13.7
	c1.5,4,3.5,8,5.1,12c2.8,7.1,5.8,19.1,8.1,28c0,0,0,0-0.1,0c-3.5,1.5-1.8,3,0,5.9c1.8,2.8,2.6,5.4,3.9,8.4c1.2,2.8,1.7,5.7,2.7,8.4
	c1.1,3,3.3,3.9,2.5,7.7c-0.9,4.4-4,8.2,0.2,12.4c1.3,1.3,3.9,1.2,4.9,2.4c0.8,0.8,0.9,1.8,1,2.8c-5.9-1.8-13.5-2.1-21.3-1.4
	c-1.8-1.9-4.8-2.8-7.4-2.4c-2.1,0.3-7,1.7-7.5,4.1c0,0.2,0,0.4,0,0.6c-6.4,1.5-12.1,3.3-15.8,5.2c-17.2,8.5-11.9,25.1-11.5,28
	c0.5,3.5,1.1,5.7,2.8,8.9C332.7,341.1,337.1,345.3,344.7,347.1z M309.2,108.3c3.2-0.5,6.5,0.1,9.9,0.5c1.6,1.1,3.1,2.3,4.2,3.8
	c1.6,2.1,2.6,4.3,3.6,6.6C321.1,115.6,314.5,112.7,309.2,108.3z M356.9,146.9c-5-6-9.9-12.6-9.8-18.9c0.4-0.1,0.7-0.2,1-0.4
	c6.4,3.3,10.6,11.5,14.2,19.5C360.5,147.6,358.9,147.2,356.9,146.9z M386.6,208.1c-0.4-0.7-0.7-1.3-1.1-2
	c14.6,7.7,30.2,9.1,47.2,9.1c2.1,0,5.9-0.7,7.7,0.1c2,0.9,2,3.2,3.8,4.3c3.9,2.5,9.7,1.7,14.3,1.6c2.5,0,6-0.8,7.8,1.1
	c1.3,1.3,0,4.6,1,6.1c1.4,1.9,4.1,2.6,6.8,2.7c-0.8,0.7-1.7,1.3-2.6,1.8c-2.7,1.9-4.7,3.7-7.6,3.6c-3.1,0-5.8-1.7-8.7,0.8
	c-1.6,1.4-1,2.9-3,3.6c-1.4,0.5-3.4-0.2-4.8,0c-7.1,1-12.4,5.8-19.3,6.2c-3.3,0.2-11.4-1.6-15.7-0.7c-1.8-0.9-3.4-1.7-4.8-3.3
	c0,0-1.3-0.1-1.4,0c-0.1-4.3-2.9-6-6.1-6.2C395.4,227.1,390.8,215.7,386.6,208.1z M391.8,416c2.2-5.7,3.9-13,4.5-19
	c0.2-1.9-0.2-3.8-0.7-5.5c1.8,1.5,4.4,5.2,6.8,5.4c-0.2-3.8-5.3-6.9-5.5-11.4c1.1,2.2,3.4,4.5,5.9,4.7c-5.5-9.9-1.1-18.9,0.3-28.8
	c1.4-9.3-2.3-18.5-1.8-28.1c4.1-0.2,6.1,1.6,8.6,0.4c0,1.7-0.2,3.6,1.9,3.6c0.6,1.6,0.5,3.3,0.5,5c4.2-0.1,0.1,6.5,4.6,6
	c0.8,4.3,2.8,8.1,4.9,12c2.3,4.2,2.5,8.1,3.8,12.4c1.3,4.3,1.2,8.5,1.6,13.1c0.4,4.4,2.6,14.9,2.4,19.7c-2.9,0.2-7.8,2.5-10.9,4.5
	c-4,2.5-7.6,4.3-11.8,6.6c-5.5,3.1-11.7,4.2-18,4.7C390,419.6,391.1,417.8,391.8,416z"/>
<path id='pose3' fill="#ED3530" d="M213.7,232.1c0.6,1.6,2.6,1.8,3.5,3.2c0.5,0.7,0.3,1.8,0.9,2.6c0.5,0.8,1.7,1.1,2.1,1.9
	c1.3,1.9,1.1,2.7,2.9,4.3c1.5,1.3,2.3,2.6,4.2,3.5c1.2,0.5,4.3,1.8,5.6,1.7c2.4-0.4,2.4-3,0-3.5c1-1,5.8-4.8,1.1-5
	c0.3-1.8-0.9-2.7-2.4-3.2c-2-0.7-2.6,0.4-3.2-1.8c-0.3-1,1-8.4,1.9-8.6c2.4-0.4,2.6,16,7.7,14.3c0.5,1.3,1,2.6,1.6,3.9
	c1.4,3.4,4.4,6.8,6.2,10.1c2.4,4.4,6.3,7.3,10.3,10.2c-2.3-4.9-8.5-11.2-8.2-17c1.7,1.9,3.1,4.4,4.9,6.4c-1.2-2.6-4.3-11.5-4.3-15.4
	c0.8,5.4,2.8,11,7.3,16.3c-2.6-5.3-4.9-10-5.8-15.4c10.3,5.8,6.8,17.5,12.9,25.8c-0.4-4-1.7-7.4-1.8-11.6c2.6,4.7,2.8,9.8,7.6,13.3
	c-2.8-5.5-4.6-9.2-4-15.7c1,2.2,1.2,5.2,2.4,7.6c1.2,2.4,2.9,4.6,4.7,6.7c-0.3-1.3-0.8-2.4-0.9-3.6c0.9,1.4,2,2.8,3.2,3.9
	c0-2.2-0.1-4.5,0-6.7c0.4,0.7,1.2,1.5,1.9,2c0.3-1.8,0.3-3.6,0.4-5.5c0.7,0.5,0.9,1,1.7,1.9c-0.2-2.4-0.2-4.5-0.3-7
	c0.7,1,1.5,2.4,2.5,2.7c-0.7-4-1.7-6.1-1.1-10.2c0.5-3.5,1.5-5.5,3.1-8.6c1.9-3.7,2.4-6.5,3-10.5c0.1-0.8,0.7-3.9,1.4-5.5l1.6-0.7
	c0.1,0.1,0.1,0.2,0.2,0.4l0.3,0.1c0,4.9,0,9.2,1.7,13.7c0.7,1.8,2.8,3.8,3.2,5.4c0.5,2-1,4.5-0.2,6.5c2.5,5.8,15.4,5,20.2,7
	c0.9,4.4-0.6,8,0.5,12.3c1.1,4.2,0.3,6.8,0.1,11c-0.2,3.7-0.4,8.7-0.9,11.8c-0.2,1.4,0,4.5-0.6,5.9c-0.4,1-0.4,1.5-0.8,2.5
	c-0.4,1.1-1.6,0.8-1.8,1.9c-1.7,7.3,1.8,16.6-0.3,24.3c-1,3.8-3.5,7.9-3.6,11.9c0,1.9,0.9,3.6,1,5.3c0.1,1.9-0.4,4.3-0.5,6.4
	c-0.2,3.8,0.5,6.9-0.4,10.3c-0.6,2.3-2.3,5.9-4,8.3c-3,4.2-12.6,5-17.7,5.9c-3.5,0.6-13.5,4.1-12.8,5.4c0.5,1,3.8,0.8,8.1,0.3
	c-1.6,0.7-2.7,1.4-2.2,2.2c0.7,1.2,9.2,0.1,12.6-0.5c2.9-0.6,8.4-1.6,12.2-2.9c0.3,0.1,0.5,0.1,0.8,0.2c-0.2,0.2-0.4,0.4-0.6,0.6
	c-1.1,1-3.9,2.9-4,4.5c3.3,2.8,7-0.8,10.5-2.1c2.4-0.9,8.9-0.7,10.3-2.9c0,0,0,0,0,0c0,0,0.1-0.1,0.1-0.3c1.3-2.2,1.4-3.3,1.6-5
	c0.8-2.9,1.7-6.3,1.9-7.9c0.7-4.6,2.6-7.6,4.4-11.7c1.7-3.9,1.5-7.1,3-11.2c0.4-1.3,1.8-3.5,1.7-4.8c-0.1-2-0.2-2.5-0.3-4.3
	c-0.3-3.7,1.7-7.3,2.4-10.7c0.9-4.2,2.5-9.7,2.9-13.9c0.8-8.5,0.7-18.2,0.3-26.7c-0.5-9.1-1.3-15.3,1.7-23.4
	c2.9-7.7,0.9-16.6,3.2-24.8c0.5-1.7,1.2-3.8,2-6.2c3-3.6,6.4-6.6,11-8.4c2.1-0.8,5.2-2.4,7.5-2.6c3-0.2,3.1,1.2,6.4,0.3
	c2.4-0.7,4.6-2.3,7.1-2.7c3-0.5,4.6,0.9,7.1,1.4c2.6,0.5,5.3-0.7,7.8-0.4c2.8,0.4,4.6,1.3,7.8,1.5c-0.2,0.6-0.2,0.8,0.4,1.4
	c1.7,0.5,2.6-0.4,3.9,0.1c0.7,0.3,1.2,2.1,2.1,2.5c2.6,1.3,4.5,0.3,7.1,2.1c2.2,1.6,4.6,4,7.3,4.8c1,0.3,2.8-0.1,3.5,0.1
	c1.2,0.3,2.2,1.7,3.6,1.8c0.7,0.1,1.3-0.2,2-0.6c0.7,3.2,2.9,2.7,5.7,5.6c3,3.2,0.9,7.6,4.3,11.1c5.2,5.5,17,10.9,24.6,10.2
	c9-0.8,15.6-7,24.6-3.2c5.7,2.4,5.9,3.2,12.2,1.6c4-1,7.6-2.1,8.4,3.3c0.3,2.2-1.3,4.6-2.7,7.2c-1.6,3-1.5,5-2.5,8.1
	c-1.5,4.9-2.5,2.1-5.8,5.5c-2.7,2.8-1.5,5.9,0.9,7.8c-3.8,0.1-10.1,4.2-5.9,8c-4.3,0.2-7.8-0.1-10,4.4c-1.5,3.1-1.2,7.1,1.4,9
	c-3.1,1-6.3,2.8-9.4,3.9c-5,1.8-3.2,0.8-3.8,6.6c-0.4,4.1,0.8,8.5,0.5,12.8c-0.2,4.6-2.4,33.6-2.1,37.9c0.3,5.3,6.7,16.2,9.7,15
	c2.6-1,3.2-3.9,4.6-6.3c2.4-3.8,4-6.4,7-9.5c1.8-1.9,3.7-6.2,5.9-7.4c3.7-2.2,3.7,1.9,6.9-2.7c5-7,3.3-11,11.6-14.5
	c2.4-1,7.7-3.4,9.1-5.4c2.1-3.1-0.3-5.7,0.1-9.5c8.6,0.2,13.8,1.5,20.1-6.1c5.5-6.7,10.1-14.2,15.2-21.2
	c10.5-14.5,23.9-30.7,25.5-49.1c1.2-13.5,3.2-32.3-11.7-36.3c-6.4-1.7-18.5-6.9-25.1-9.1c-8-2.7-16.7-4.2-23-6.4l-0.7,0.2
	c-0.1-0.1-0.2-0.1-0.3-0.2c-7.1-4.2-15.1-7.4-23-9c-9.1-1.9-15.7-8.5-24.4-11.4c-3.6-1.2-15.2-7.4-20-6.1c-0.3-0.2-0.7-0.4-1.1-0.5
	c-1-0.4-3,0-3.9-0.8c-1.1-1-0.6-3-1.6-4.1c-1.4-1.6-5.1-2.5-6.7-3.6c-2.6-1.8-3.8-1.3-7.1-2.1c-2.6-0.7-5.1-2.5-7.8-2.9
	c-6.3-0.9-12.2-3.7-18.2-6.5c-3.1-1.5-6-3.4-9.2-4.8c-2.7-1.2-5.4-1.5-8.3-2.2c-5.5-1.5-10.5-5.4-16-6.4c-6.5-1.2-13.4-2.2-19.9-2.8
	c-5.3-0.5-16.4-3.3-25.9-5.7c-3.5-1.7-8.1-2.1-11.5-2.4c-7.2-0.7-13.1,1-20.3,0.3c-3.9-0.4-7.3-1.8-11-2.1c-4.2-0.4-8,0.5-12.1-0.4
	c-13.5-2.9-28.3-3.3-41.6,1.8c-6.3,2.4-9.3,10.8-11.1,16.9c-2,6.6-5.6,13.7-4.5,20.6c1.8,11.5,0,23.9-1,35.4
	c-1.4,3-0.9,7.3-1.6,10.5c-0.9,3.8-1.7,7.7-2.9,11.5c-0.8,2.5-0.7,4.2-0.5,6.7C213.9,227.3,213,230.4,213.7,232.1z M251.1,151.4
	c1.3-3,0.4-4.4,4.3-4c1.5,0.2,2.5,1.2,4.2,1.2c1.1,0,2.8-0.8,3.5-0.8c1.7,0.1,5.3,0.5,7.2,1.2c1.3,0.4,5.2,3.3,5.4,5
	c0.2,1.8-3.5,5.4-4.3,7.1c-0.1,0.2-0.2,0.4-0.3,0.7c-2.5-0.1-4.9,0.1-7.5,0.9c-5.9,1.8-12.6,1.8-17.5,4.4
	C246.3,160.8,248.8,156.9,251.1,151.4z"/>
<path id='pose4' fill="#ED3530" d="M593.1,346.1c-2.8-6.5-12.8-16.1-18.4-20.3c-1,1.4-2.4,1.8-3,3.6c-2.5,0.2-6.3,0.2-8.6-0.6
	c-5-1.7-2.3-2.6-5.1-5.1c-2.7-2.4-1.3-1.6-5.8-2.9c-3.1-0.9-6.2-1.1-9.5-1.5c-11.7-1.3-23.7-1.6-35.7-2.9
	c-5.5-0.6-11.4-2.7-16.9-3.5c-5.7-0.8-12.4,0.1-17.4-3.1c-10.2-6.5-14.7-22-20.2-32.1c-2.5-4.6-5.3-8.8-8.1-13.1
	c3.3-7.5,16.2-4.5,24.2-5.3c12.7-1.4,25.4-3.9,37.6-7.1c13.7-3.6,17.9-6.9,23.9-19.5c5.7-12-0.8-18.7,1-31.3
	c8.5-0.5,31.9,2,35.2-6.8c3.7-9.8-16.5-18.7-24-19.6c-6.1-0.7-12.6-0.5-18-3c-4.4-2-9.9-2.4-15-1.8c-10.3,1.3-9.6,18.6-11.1,26.6
	c-1,5.1-1.4,13.3-6.2,15.8c-3.5,1.8-14.7,0.9-18.8,0.8c-12-0.5-23.1-3.6-34.5-5.5c-9.4-1.5-16.3-3.8-23.8-7.7c-1.5-2-5.9-4-10.6-5.8
	c-0.6-0.3-1.2-0.5-1.7-0.6c-5.2-1.8-10.5-3.3-12.5-4c-7.5-2.7-37.5-15.9-43.3-21.7c-5.5-5.5-10-12.4-17.9-14.6
	c-5.7-1.6-20.4-2.3-23.4,4.2c-3.6,0.5-10.9-0.7-14-2.3c-1.2-0.6-2-1.4-2.7-2.4c0.1-0.6,0.1-1.2,0.1-1.8c-0.1-2.2-0.7-4.3-1.5-6.4
	c-0.5-1.3-1.8-5.3-3.6-4.9c-0.5,0.1-0.8,0.4-1,0.8c-3.8-7-9-14.9-15.3-18.4c-6-3.4-17.4-0.6-23,3c-6.9,4.4-11.2,15.9-12.2,23.8
	c-1.3,9.9,5.6,15.6,11,22.6c-8.4-2.3-3.9,9.2,3.5,12.4c-1.6,3.1-2.8,6.6-4.1,9.6c-3.7,8.3-2.9,18.9-1,27.6c0.6,0,1.2,0.1,1.8,0.1
	c0.6,11.8-0.3,23.7-1.4,35c-1.7,17.4-0.9,35.3-2.4,52.8c-0.6,6.7-0.4,13.7-0.7,20.4l-0.1,0c0,9.1-2.1,18.7-11.9,21.4
	c-3.5,0.9-6.6,2.4-10.2,2.9c-2.2,0.3-10.7,2.5-9.9,3.6c0.7,0.9,3.5,2.1,5.9,2c2.2-0.1,4.4-0.6,6.7-0.7c5.1-0.2,9.7-1.3,14.6-1.7
	c5-0.4,8.6-1.4,12.6,1.1c3.3,2.1,7.9,4.7,8.6,4.2c2.1-1.7-5.1-7.5-7.1-11.1c-0.3-0.5-0.4-1.1-0.6-1.8c1.1-5.5,2.2-11.7,2.7-17.4
	c0.1-0.5,0.1-1,0.1-1.5c0.5-8.7,1.7-15.2,5.1-23.3c3.9-9.2,5.1-14.9,5.1-24.3c0-7.7,0.4-17.7,2.9-24.8c1.4-3.7,4.2-6.9,5.7-10.7
	c1.5-3.7,2.3-7.4,4-11.1l0.1,0c13,2.2,22.3,14,32.1,21.9c4,3.2,15,6.8,17.5,10.9c2.6,4.2-0.4,12.1-0.6,16.6
	c-1.2,23.5-13,42.1-12.4,66.6c0.1,3.1,0.1,8.7,2.9,8.5c1-0.1,1.1-16.7,2.4-16.3c1.5,0.5,0.7,13.4,4.5,18.8c1,0,2.2-1.4,2-3.6
	c0.9,1,2.8,2,3.3,1.5c1.2-1.1-0.5-8-1.7-13.6c0.3,0.3,0.6,0.5,0.9,0.6c3,1,1.4-2.8,1.2-4.6c-0.1-0.9-0.3-2-0.4-3.1
	c2.9,2.3,7.2,8.9,11.7,8.6c-0.3-3.8-3.2-4.7-4.6-7.4c-1.6-3.1,2-6.3,1.8-10c-0.2-5-2.5-14.7-1.5-19c0.9-4.1,6.1-9.6,7.5-14.4
	c1.6-5.2,3.9-10.3,3.6-16.1c1.7-0.3,3.6-2.1,5.6-4.8c5,0.9,16.5,2.5,22.6,2.6c1.4,0,6-0.7,6.1-0.7c6.2-0.7,9.3,7.8,12.3,12.3
	c6.9,10.4,15.5,25.5,26.2,32.2c13,8.2,31.3,10.1,45.8,15c13.6,4.6,27,9,40.5,13.1c5.7,1.8,10.9,3.3,16.6,4.5c4.7,1,12,5,16.8,3.7
	c5.1-1.4,6.1-6.9,11.5-8.2c5.7-1.4,8.7,3.6,6,10.4c-2.2,5.5-10,4.6-13.1,8.7c-5.8,7.5,3.1,7.1,8.7,7.3c5.5,0.2,12.4,2,17.5,0
	c5.4-2.2,7.2-6.9,10.8-11.8C581.9,359.2,596.7,354.5,593.1,346.1z"/>
<path id='pose5' fill="#ED3530" d="M566.2,105.3c-1-2.7-2.7-4.4-2.9-7.5c-0.1-2.7,1.7-9.1,1.5-11.8c-0.4-4.5-0.8-8.3-3-12.3
	c-2.9-5.3-4.9-9-10.6-8.7c-6.1,0.3-12.4,0.7-18.4,1.6c-2.9,0.4-5.7,1.4-8.5,1.9c-2,0.4-59.3,6.5-64.3,6.3c-7.2-0.3-14-0.1-21.2,0.6
	c-5.3,0.5-10.3,1.1-15.6,2c-2.1,0.4-4.4,0.5-6.6,0.6c-1.4-0.7-2.9-1.2-4.5-1.3c-7.6-0.4-18.7,9.1-25.9,12.1
	c-7.1,2.9-13,8.5-20.1,11.5c-9.1,3.9-17.5,7.1-27.4,5.6c-8.5-1.3-17.8-1.9-26.5-1c-10.9,1.1-26.9,8-35.2,18.1
	c-2.3,2.1-4.2,4.8-6.2,7c-7.1,7.9-11.3,16-13.8,25.8c0,0.1-0.1,0.3-0.1,0.4c-1,1.9-1.8,3.9-2.2,6c-0.9,4.9,0.7,8.7,1.2,13.1
	c0.2,1.8-2.5,0.6-1,3.6c0.9,1.9,3.8,0.7,4.7,3.3c1.2,3.5-2.9,6.6-1.7,11.5c0.9,3.7,3.7,6.7,4.5,10.5c1,4.9,0.1,9,1.7,13.2
	c2.3,5.7,0.9,8.4,1.7,14.4c0.6,4.2,1.8,7.7,2.3,12.1c2.1,18.6,8.8,36.6,11.5,55.1c0.8,5.1,0.4,10.4,0.1,15.5
	c-0.3,5.8,0.2,8.8-3,12.7c-3.5,4.3-4.8,5.7-6.3,10.8c-1.5,5-2.9,6.1-6.7,9.9c-11.5,11.1-22,23-28.3,37.2c-3.4,7.7-5.4,19.2,1.6,26
	c4.9,4.7,18.3,4.6,25.4,5.8c11.2,1.9,22.2,3.6,33.7,3.9v0c0.1,0,0.1,0,0.2,0c0.3,0,0.5,0,0.8,0c4.5,0.1,11.9,0.6,13.8,2
	c2.8,2.1,4,4.5,5.1,7.5c1.2,3.1,2.8,7.2,4,2.7c0.8-3.1-0.7-5.2,1.1-8.1c2.3-4,8.9-2.6,14.8-0.8c3.4,1,13.1,2.2,15.4,2.6
	c2.1,0.4,3.5,0.3,4.4-0.5c0.5-0.5,0.2-2,0.2-2c1-0.1,2.6-0.1,3.4-0.4c3-1.2,3.4-2.8-0.8-4.4c2.4-4.8-6.7-4.1-8.9-4.6
	c0.6-4.7-22.7-4.2-26.9-5c-4.1-0.8-9-2.3-13-3.3c-1.1-0.3-2.9-0.7-4.9-1.2c-2.4-0.7-5.4-1.4-8.7-2.1c0,0,0,0,0,0l0,0
	c-13.1-2.8-30-5.9-29-12.7c0.3-2.2,3.3-2.7,4.5-4c1.5-1.6,2.4-3.2,3.8-5.3c2.3-3.3,5.4-7,8.2-9.8c6-6,13.9-10.3,21.2-14.5
	c3.4-2,6.6-4.3,9.4-7c-0.5,3.7-2.5,4.5-6,7.6c-2.8,2.5-5.3,5.5-7,8.9c-1.9,4.1-2.1,8.6-2.6,13c-0.3,2.8-0.1,3.9-2.3,6.1
	c-1.5,1.5-3.6,2.3-4.1,4.4c2.1-1.7,4.9-4.2,6.4-6.6c-0.5,3.5-2.1,6.9-4.9,9.2c2.1-0.5,3.5-3.4,5.3-5c0.2,3.9,0.3,7.1,1.2,10.9
	c-0.4-3.4-0.1-8.8,1.4-11.8c1.6-3.1,5-5.1,6.9-7.9c1.3,5.7,9.8,10.5,14.6,13.4c4.3,2.5,5.9,7.1,10.4,9.2c5.2,2.4,14.3,3.5,20.2,2.2
	c6.8-1.5,12.7-5.1,18.1-9.2c2.2,6.5-3.7,13-4.2,19c5.2-3.7,6.6-12.3,8.8-17.9c2.2-5.6,1.6-13.6,6.7-17.9c1.3,5.2,5.3,7.5,7.8,11.4
	c0.2,2,0.3,4,0.3,6c0,6.4,0.8,12.7,1.2,19.1c0.1,1.8,0.9,7.8-0.7,8.9c-1.9,1.4-5.8-2.4-8.1-0.1c-4.3,4.1,8.5,8.5,11.4,9.7
	c5,2,12.6,3.2,17.8,1.9c3.3-0.8,6.4-1.8,9.1-3.9c1.7-1.3,8.4-7.4,3.9-8.1c0-1.8-1.3-2.7-3.1-2.7c-1.4-2.5-3.3-0.2-5-0.3
	c-1.8-0.1-3.7-2.8-5.7-0.2c-0.5-7-1.9-13.2-1.6-20.6c0.3-8.2,0.5-15.2,1.8-23.3c1-6.3-0.8-15-0.6-21.6c0.3-7.5-0.4-13.3-2.5-20.2
	c-2.2-7.2-3.2-15.6-6-22.5c-0.8-1.9-1.5-3.5-2.4-5c2.9-2.5,5.4-4.6,5.4-4.6c-1.2-2.1-10.4-11.7-12.3-13.3c-0.2-0.2-0.4-0.4-0.7-0.5
	h0c-6.4-5-13.1-6.6-18.8-13.5c-5.7-6.9-13.5-14.2-15.5-23.1c-1-4.5-2-9.7-2.4-14.2c-0.5-5.7,0.9-6.9,3.9-11c6-8.4,0.5-15.3,1.9-25.1
	c0.6-4.1,2.6-8.5,5.1-12.1c17.1-0.5,36.1-5.9,49-17c6.2-5.4,12.6-12.2,19-17.8c7.6-6.7,2.4-18.4,9.6-24.7c2.5-2.2,9.4-2.2,12.7-3
	c4-1,8.1-3.2,12.5-2.8c4.5,6.4,7.7,13.8,9.7,21.3c2.1,7.9,0.9,17.3,5.7,24.1c13,18.1,28-10.9,30-23.1c1.6-9.5,0-19.2,0-28.7
	c0-1.8,0.2-3.6,0.5-5.2c6.5,4.3,10.3,11.5,14.8,18.2c6.3,9.3,6,23.3,14.3,30.6c7.1,6.3,13.4-2.8,14.6-5.4
	C562,150.2,571.4,119.3,566.2,105.3z M380.6,332.6c-2.8-1.1-17-3.2-14.5-6.8c1.9-2.8,11.1-0.1,14.4-0.5c1.8,3,3.2,6.2,4.3,9.6
	C383.7,334,382.3,333.3,380.6,332.6z"/>
  </g>
  <script>// <![CDATA[
  window.addEventListener('DOMContentLoaded', () => {    
var breakDance = new TimelineMax({onComplete:function(){breakDance.reverse()},onReverseComplete:function(){breakDance.play()}})

breakDance.to('#pose1', .5, {morphSVG:'#pose2', ease:Power3.easeInOut},'+=.5')
.to('#pose1', .5, {morphSVG:'#pose3', ease:Power3.easeInOut},'+=1')
.to('#pose1', .5, {morphSVG:'#pose4', ease:Power3.easeInOut},'+=1')
.to('#pose1', .5, {morphSVG:'#pose2', ease:Power3.easeInOut},'+=1')
.set('#pose1',{alpha:1},'+=.5')    
);
//  ]]></script>
  <style>
    body {
  margin: 0;
  padding:15px 0px 0px 0px;
  background-color:#F2DCAD;
}

svg{
  position:relative;
  margin:0 auto;
  display:block;
  top:0;right:0;bottom:0;left:0;
}

g path{visibility: hidden;} 

  </style>
  <script>
var breakDance = new TimelineMax({onComplete:function(){breakDance.reverse()},onReverseComplete:function(){breakDance.play()}})

breakDance.to('#pose1', .5, {morphSVG:'#pose2', ease:Power3.easeInOut},'+=.5')
.to('#pose1', .5, {morphSVG:'#pose3', ease:Power3.easeInOut},'+=1')
.to('#pose1', .5, {morphSVG:'#pose4', ease:Power3.easeInOut},'+=1')
.to('#pose1', .5, {morphSVG:'#pose2', ease:Power3.easeInOut},'+=1')
.set('#pose1',{alpha:1},'+=.5')    
  </script>
</svg>
